<svg width="297" height="60" viewBox="0 0 300 60" fill="none" xmlns="http://www.w3.org/2000/svg">
  <g clipPath="url(#clip0_214_4405)">
    <path d="M106.632 58.68C98.988 58.68 93.552 53.244 93.552 45.498C93.552 37.752 99.09 32.316 106.32 32.316C113.55 32.316 118.836 37.956 118.836 45.498C118.836 45.96 118.836 46.572 118.782 47.292H99.444C99.702 50.934 102.93 53.652 106.674 53.652C109.956 53.652 111.648 52.062 113.082 49.854L117.954 52.164C115.854 56.112 111.954 58.68 106.62 58.68H106.632ZM106.224 37.188C102.684 37.188 99.918 40.11 99.504 42.984H112.944C112.536 39.648 109.866 37.188 106.224 37.188ZM131.592 50.37L138.36 32.934H144.516L134.154 58.068H128.922L118.56 32.934H124.866L131.586 50.37H131.592ZM170.658 45.498C170.658 52.884 164.964 58.68 157.272 58.68C149.58 58.68 143.886 52.884 143.886 45.498C143.886 38.112 149.58 32.316 157.272 32.316C164.964 32.316 170.658 38.112 170.658 45.498ZM149.784 45.498C149.784 49.806 153.066 53.244 157.272 53.244C161.478 53.244 164.76 49.806 164.76 45.498C164.76 41.19 161.478 37.752 157.272 37.752C153.066 37.752 149.784 41.19 149.784 45.498ZM174.24 58.068V22.164H180.192V58.068H174.24ZM184.782 47.244V32.934H190.734V46.884C190.734 50.832 192.684 53.19 195.966 53.19C199.248 53.19 201.198 50.832 201.198 46.884V32.934H207.15V47.244C207.15 54.474 202.944 58.68 195.972 58.68C189 58.68 184.794 54.474 184.794 47.244H184.782ZM223.704 32.316C226.218 32.316 228.42 32.934 230.424 34.11V40.008C228.426 38.52 226.374 37.752 224.22 37.752C219.756 37.752 216.426 41.136 216.426 45.498C216.426 49.86 219.708 53.244 224.22 53.244C226.632 53.244 228.732 52.218 230.526 50.988V56.886C228.431 58.0712 226.063 58.6895 223.656 58.68C215.862 58.68 210.426 53.142 210.426 45.498C210.426 37.854 215.916 32.316 223.71 32.316H223.704ZM237.264 29.244C235.266 29.244 233.622 27.6 233.622 25.602C233.622 23.604 235.266 21.912 237.264 21.912C239.364 21.912 240.96 23.604 240.96 25.602C240.96 27.6 239.37 29.244 237.264 29.244ZM240.288 32.934V58.068H234.336V32.934H240.288ZM270.252 45.498C270.252 52.884 264.558 58.68 256.866 58.68C249.174 58.68 243.48 52.884 243.48 45.498C243.48 38.112 249.174 32.316 256.866 32.316C264.558 32.316 270.252 38.112 270.252 45.498ZM249.378 45.498C249.378 49.806 252.66 53.244 256.866 53.244C261.072 53.244 264.354 49.806 264.354 45.498C264.354 41.19 261.072 37.752 256.866 37.752C252.66 37.752 249.378 41.19 249.378 45.498ZM265.482 21.24L259.278 28.572H254.046L258.972 21.24H265.488H265.482ZM273.552 32.934H279.504V36.27C281.094 33.858 283.656 32.322 287.196 32.322C293.352 32.322 296.94 36.372 296.94 42.936V58.068H290.988V44.064C290.988 40.164 289.038 37.806 285.396 37.806C281.754 37.806 279.498 40.524 279.498 44.832V58.062H273.546V32.934H273.552ZM50.16 3.588H50.13H50.1C42.738 3.6 35.724 6.492 30.486 11.58C27.81 10.446 24.918 9.858 21.936 9.858C9.84 9.852 0 19.698 0 31.794C0 43.89 9.84 53.73 21.936 53.73C24.87 53.73 27.774 53.13 30.462 52.002C35.544 56.946 42.474 60 50.112 60C65.664 60 78.318 47.346 78.318 31.794C78.318 16.242 65.694 3.612 50.16 3.588ZM50.112 53.736C38.016 53.736 28.176 43.896 28.176 31.8H21.906C21.906 37.332 23.514 42.492 26.274 46.854C24.87 47.256 23.412 47.472 21.936 47.472C13.296 47.472 6.264 40.44 6.264 31.8C6.264 23.16 13.296 16.128 21.936 16.128C25.356 16.128 28.608 17.208 31.338 19.26C35.322 22.254 37.608 26.826 37.608 31.8H43.878C43.878 25.236 41.034 19.176 36.042 14.994C39.9889 11.6803 44.9765 9.86197 50.13 9.858C62.22 9.864 72.054 19.704 72.054 31.794C72.054 43.884 62.214 53.73 50.118 53.73L50.112 53.736ZM97.17 17.772V7.89H95.076V5.418H97.17V1.764H100.092V5.418H102.186V7.89H100.092V17.772H97.17ZM105.216 3.606C104.742 3.60442 104.288 3.41553 103.953 3.08056C103.618 2.74559 103.43 2.29172 103.428 1.818C103.428 0.834 104.232 0 105.216 0C106.248 0 107.034 0.834 107.034 1.818C107.034 2.802 106.254 3.606 105.216 3.606ZM103.782 17.772V5.418H106.704V17.772H103.782ZM120.39 14.874C119.358 16.818 117.438 18.078 114.822 18.078C111.066 18.078 108.396 15.408 108.396 11.598C108.396 7.788 111.12 5.118 114.672 5.118C118.224 5.118 120.822 7.89 120.822 11.598C120.822 11.826 120.822 12.126 120.798 12.48H111.294C111.42 14.268 113.01 15.606 114.846 15.606C116.46 15.606 117.294 14.826 117.996 13.74L120.39 14.874ZM117.918 10.362C117.714 8.724 116.406 7.512 114.618 7.512C112.83 7.512 111.516 8.946 111.318 10.362H117.924H117.918Z" fill="#2C3357">
    </path>
    <path d="M125.305 17.7713H122.383V5.41733H125.305V7.05533C126.085 5.87333 127.345 5.11133 129.085 5.11133C132.109 5.11133 133.873 7.10333 133.873 10.3313V17.7653H130.951V10.8833C130.951 8.96933 129.991 7.80533 128.203 7.80533C126.415 7.80533 125.305 9.14333 125.305 11.2613V17.7653V17.7713Z" fill="#2C3357">
    </path>
    <path d="M145.62 17.7716V16.0076C144.714 17.2916 143.148 18.0776 141.438 18.0776C138.036 18.0776 135.414 15.3056 135.414 11.5976C135.414 7.88958 138.036 5.11758 141.438 5.11758C143.154 5.11758 144.714 5.82558 145.62 7.10958V0.767578H148.518V17.7716H145.62ZM142.038 15.4256C144.132 15.4256 145.746 13.7096 145.746 11.5916C145.746 9.47358 144.132 7.75758 142.038 7.75758C139.944 7.75758 138.33 9.47358 138.33 11.5916C138.33 13.7096 139.944 15.4256 142.038 15.4256ZM154.62 10.4876L157.974 10.0616V9.53358C157.974 8.29758 157.116 7.51758 155.778 7.51758C154.518 7.51758 153.714 8.14758 153.33 9.38358L150.66 8.70558C151.266 6.48558 153.258 5.12358 155.778 5.12358C159.006 5.12358 160.818 6.80958 160.818 9.73758V17.7776H158.094L158.07 16.2656C157.236 17.4476 155.826 18.0836 154.212 18.0836C151.866 18.0836 150.228 16.5956 150.228 14.5016C150.228 12.2576 151.692 10.9196 154.614 10.4936L154.62 10.4876ZM154.896 15.7316C156.714 15.7316 157.998 14.5736 157.998 12.9356V12.2276L155.202 12.6056C153.816 12.7796 153.132 13.4096 153.132 14.2916C153.132 15.1736 153.864 15.7256 154.896 15.7256V15.7316Z" fill="#2C3357">
    </path>
    <path d="M166.086 17.7713H163.164V5.41733H166.086V7.05533C166.866 5.87333 168.126 5.11133 169.866 5.11133C172.89 5.11133 174.654 7.10333 174.654 10.3313V17.7653H171.732V10.8833C171.732 8.96933 170.772 7.80533 168.984 7.80533C167.196 7.80533 166.086 9.14333 166.086 11.2613V17.7653V17.7713Z" fill="#2C3357">
    </path>
    <path d="M176.771 12.4496V5.41758H179.693V12.2756C179.693 14.2196 180.653 15.3776 182.267 15.3776C183.881 15.3776 184.841 14.2196 184.841 12.2756V5.41758H187.763V12.4496C187.763 16.0016 185.699 18.0716 182.267 18.0716C178.835 18.0716 176.771 16.0016 176.771 12.4496ZM190.109 17.7716V0.767578H193.007V7.18158C193.913 5.89758 195.479 5.11158 197.189 5.11158C200.591 5.11158 203.213 7.88358 203.213 11.5916C203.213 15.2996 200.591 18.0716 197.189 18.0716C195.473 18.0716 193.913 17.3636 193.007 16.0796V17.7656H190.109V17.7716ZM196.589 7.76358C194.495 7.76358 192.881 9.47958 192.881 11.5976C192.881 13.7156 194.495 15.4316 196.589 15.4316C198.683 15.4316 200.297 13.7156 200.297 11.5976C200.297 9.47958 198.683 7.76358 196.589 7.76358ZM216.197 14.8736C215.165 16.8176 213.245 18.0776 210.629 18.0776C206.873 18.0776 204.203 15.4076 204.203 11.5976C204.203 7.78758 206.927 5.11758 210.479 5.11758C214.031 5.11758 216.629 7.88958 216.629 11.5976C216.629 11.8256 216.629 12.1256 216.605 12.4796H207.101C207.227 14.2676 208.817 15.6056 210.653 15.6056C212.267 15.6056 213.095 14.8256 213.803 13.7396L216.197 14.8736ZM213.725 10.3616C213.521 8.72358 212.213 7.51158 210.425 7.51158C208.637 7.51158 207.323 8.94558 207.125 10.3616H213.731H213.725Z" fill="#2C3357">
    </path>
  </g>
  <defs>
    <clipPath id="clip0_214_4405">
      <rect width="296.94" height="60" fill="white"></rect>
    </clipPath>
  </defs>
</svg>